<mxfile host="app.diagrams.net" modified="2022-08-09T01:06:04.676Z" agent="5.0 (Windows NT 10.0; Win64; x64) AppleWebKit/537.36 (KHTML, like Gecko) Chrome/104.0.0.0 Safari/537.36" etag="NnUZQ8075gcXqkS0nu64" version="20.2.3" type="github">
  <diagram name="Page-1" id="9f46799a-70d6-7492-0946-bef42562c5a5">
    <mxGraphModel dx="948" dy="576" grid="1" gridSize="10" guides="1" tooltips="1" connect="1" arrows="1" fold="1" page="1" pageScale="1" pageWidth="1100" pageHeight="850" background="none" math="0" shadow="0">
      <root>
        <mxCell id="0" />
        <mxCell id="1" parent="0" />
        <mxCell id="78961159f06e98e8-17" value="Import/export save file" style="swimlane;html=1;fontStyle=1;align=center;verticalAlign=top;childLayout=stackLayout;horizontal=1;startSize=26;horizontalStack=0;resizeParent=1;resizeLast=0;collapsible=1;marginBottom=0;swimlaneFillColor=#ffffff;rounded=0;shadow=0;comic=0;labelBackgroundColor=none;strokeWidth=1;fillColor=none;fontFamily=Verdana;fontSize=12" parent="1" vertex="1">
          <mxGeometry x="40" width="189" height="110" as="geometry" />
        </mxCell>
        <mxCell id="WiwQQnGysN5FODEZbH94-16" value="Criação de sistema de salvamento de informações&amp;nbsp;&lt;br&gt;de &lt;b&gt;usuários&lt;/b&gt;" style="whiteSpace=wrap;html=1;aspect=fixed;align=left;" parent="78961159f06e98e8-17" vertex="1">
          <mxGeometry y="26" width="189" height="84" as="geometry" />
        </mxCell>
        <mxCell id="WiwQQnGysN5FODEZbH94-84" style="edgeStyle=orthogonalEdgeStyle;rounded=0;orthogonalLoop=1;jettySize=auto;html=1;entryX=0.002;entryY=0.366;entryDx=0;entryDy=0;entryPerimeter=0;" parent="1" source="WiwQQnGysN5FODEZbH94-53" edge="1" target="WiwQQnGysN5FODEZbH94-82">
          <mxGeometry relative="1" as="geometry">
            <mxPoint x="720" y="265" as="targetPoint" />
          </mxGeometry>
        </mxCell>
        <mxCell id="WiwQQnGysN5FODEZbH94-53" value="Criação de menu" style="shape=module;align=left;spacingLeft=20;align=center;verticalAlign=top;" parent="1" vertex="1">
          <mxGeometry x="650" y="130" width="130" height="50" as="geometry" />
        </mxCell>
        <mxCell id="B5Cqe_gx7_BWzeAKwgDc-2" style="edgeStyle=orthogonalEdgeStyle;rounded=0;orthogonalLoop=1;jettySize=auto;html=1;exitX=1;exitY=0.25;exitDx=0;exitDy=0;entryX=0;entryY=0;entryDx=0;entryDy=35;entryPerimeter=0;" edge="1" parent="1" source="WiwQQnGysN5FODEZbH94-54" target="WiwQQnGysN5FODEZbH94-53">
          <mxGeometry relative="1" as="geometry" />
        </mxCell>
        <mxCell id="WiwQQnGysN5FODEZbH94-54" value="menu" style="shape=table;startSize=30;container=1;collapsible=0;childLayout=tableLayout;fontStyle=1;align=center;" parent="1" vertex="1">
          <mxGeometry x="320" y="349.5" width="280" height="150" as="geometry" />
        </mxCell>
        <mxCell id="WiwQQnGysN5FODEZbH94-55" value="" style="shape=tableRow;horizontal=0;startSize=0;swimlaneHead=0;swimlaneBody=0;top=0;left=0;bottom=0;right=0;collapsible=0;dropTarget=0;fillColor=none;points=[[0,0.5],[1,0.5]];portConstraint=eastwest;" parent="WiwQQnGysN5FODEZbH94-54" vertex="1">
          <mxGeometry y="30" width="280" height="40" as="geometry" />
        </mxCell>
        <mxCell id="WiwQQnGysN5FODEZbH94-56" value="Arquivo" style="shape=partialRectangle;html=1;whiteSpace=wrap;connectable=0;fillColor=#6d8764;top=0;left=0;bottom=0;right=0;overflow=hidden;strokeColor=#3A5431;fontColor=#ffffff;" parent="WiwQQnGysN5FODEZbH94-55" vertex="1">
          <mxGeometry width="100" height="40" as="geometry">
            <mxRectangle width="100" height="40" as="alternateBounds" />
          </mxGeometry>
        </mxCell>
        <mxCell id="WiwQQnGysN5FODEZbH94-57" value="" style="shape=partialRectangle;html=1;whiteSpace=wrap;connectable=0;fillColor=#6d8764;top=0;left=0;bottom=0;right=0;overflow=hidden;fontColor=#ffffff;strokeColor=#3A5431;" parent="WiwQQnGysN5FODEZbH94-55" vertex="1">
          <mxGeometry x="100" width="87" height="40" as="geometry">
            <mxRectangle width="87" height="40" as="alternateBounds" />
          </mxGeometry>
        </mxCell>
        <mxCell id="WiwQQnGysN5FODEZbH94-58" value="Contato" style="shape=partialRectangle;html=1;whiteSpace=wrap;connectable=0;fillColor=#6d8764;top=0;left=0;bottom=0;right=0;overflow=hidden;fontColor=#ffffff;strokeColor=#3A5431;" parent="WiwQQnGysN5FODEZbH94-55" vertex="1">
          <mxGeometry x="187" width="93" height="40" as="geometry">
            <mxRectangle width="93" height="40" as="alternateBounds" />
          </mxGeometry>
        </mxCell>
        <mxCell id="WiwQQnGysN5FODEZbH94-59" value="" style="shape=tableRow;horizontal=0;startSize=0;swimlaneHead=0;swimlaneBody=0;top=0;left=0;bottom=0;right=0;collapsible=0;dropTarget=0;fillColor=none;points=[[0,0.5],[1,0.5]];portConstraint=eastwest;" parent="WiwQQnGysN5FODEZbH94-54" vertex="1">
          <mxGeometry y="70" width="280" height="40" as="geometry" />
        </mxCell>
        <mxCell id="WiwQQnGysN5FODEZbH94-60" value="Salvar" style="shape=partialRectangle;html=1;whiteSpace=wrap;connectable=0;fillColor=none;top=0;left=0;bottom=0;right=0;overflow=hidden;" parent="WiwQQnGysN5FODEZbH94-59" vertex="1">
          <mxGeometry width="100" height="40" as="geometry">
            <mxRectangle width="100" height="40" as="alternateBounds" />
          </mxGeometry>
        </mxCell>
        <mxCell id="WiwQQnGysN5FODEZbH94-61" value="" style="shape=partialRectangle;html=1;whiteSpace=wrap;connectable=0;fillColor=none;top=0;left=0;bottom=0;right=0;overflow=hidden;" parent="WiwQQnGysN5FODEZbH94-59" vertex="1">
          <mxGeometry x="100" width="87" height="40" as="geometry">
            <mxRectangle width="87" height="40" as="alternateBounds" />
          </mxGeometry>
        </mxCell>
        <mxCell id="WiwQQnGysN5FODEZbH94-62" value="Discord" style="shape=partialRectangle;html=1;whiteSpace=wrap;connectable=0;fillColor=none;top=0;left=0;bottom=0;right=0;overflow=hidden;" parent="WiwQQnGysN5FODEZbH94-59" vertex="1">
          <mxGeometry x="187" width="93" height="40" as="geometry">
            <mxRectangle width="93" height="40" as="alternateBounds" />
          </mxGeometry>
        </mxCell>
        <mxCell id="WiwQQnGysN5FODEZbH94-63" value="" style="shape=tableRow;horizontal=0;startSize=0;swimlaneHead=0;swimlaneBody=0;top=0;left=0;bottom=0;right=0;collapsible=0;dropTarget=0;fillColor=none;points=[[0,0.5],[1,0.5]];portConstraint=eastwest;" parent="WiwQQnGysN5FODEZbH94-54" vertex="1">
          <mxGeometry y="110" width="280" height="40" as="geometry" />
        </mxCell>
        <mxCell id="WiwQQnGysN5FODEZbH94-64" value="carregar" style="shape=partialRectangle;html=1;whiteSpace=wrap;connectable=0;fillColor=none;top=0;left=0;bottom=0;right=0;overflow=hidden;" parent="WiwQQnGysN5FODEZbH94-63" vertex="1">
          <mxGeometry width="100" height="40" as="geometry">
            <mxRectangle width="100" height="40" as="alternateBounds" />
          </mxGeometry>
        </mxCell>
        <mxCell id="WiwQQnGysN5FODEZbH94-65" value="" style="shape=partialRectangle;html=1;whiteSpace=wrap;connectable=0;fillColor=none;top=0;left=0;bottom=0;right=0;overflow=hidden;" parent="WiwQQnGysN5FODEZbH94-63" vertex="1">
          <mxGeometry x="100" width="87" height="40" as="geometry">
            <mxRectangle width="87" height="40" as="alternateBounds" />
          </mxGeometry>
        </mxCell>
        <mxCell id="WiwQQnGysN5FODEZbH94-66" value="Email" style="shape=partialRectangle;html=1;whiteSpace=wrap;connectable=0;fillColor=none;top=0;left=0;bottom=0;right=0;overflow=hidden;" parent="WiwQQnGysN5FODEZbH94-63" vertex="1">
          <mxGeometry x="187" width="93" height="40" as="geometry">
            <mxRectangle width="93" height="40" as="alternateBounds" />
          </mxGeometry>
        </mxCell>
        <mxCell id="WiwQQnGysN5FODEZbH94-70" value="Import File" style="swimlane;fontStyle=1;align=center;verticalAlign=middle;childLayout=stackLayout;horizontal=1;startSize=29;horizontalStack=0;resizeParent=1;resizeParentMax=0;resizeLast=0;collapsible=0;marginBottom=0;html=1;" parent="1" vertex="1">
          <mxGeometry x="40" y="425" width="160" height="79" as="geometry" />
        </mxCell>
        <mxCell id="WiwQQnGysN5FODEZbH94-71" value="Verificar se arquivo é valido" style="text;html=1;strokeColor=none;fillColor=none;align=center;verticalAlign=middle;spacingLeft=4;spacingRight=4;overflow=hidden;rotatable=0;points=[[0,0.5],[1,0.5]];portConstraint=eastwest;" parent="WiwQQnGysN5FODEZbH94-70" vertex="1">
          <mxGeometry y="29" width="160" height="25" as="geometry" />
        </mxCell>
        <mxCell id="WiwQQnGysN5FODEZbH94-72" value="Importar arquivo" style="text;html=1;strokeColor=none;fillColor=none;align=left;verticalAlign=middle;spacingLeft=4;spacingRight=4;overflow=hidden;rotatable=0;points=[[0,0.5],[1,0.5]];portConstraint=eastwest;" parent="WiwQQnGysN5FODEZbH94-70" vertex="1">
          <mxGeometry y="54" width="160" height="25" as="geometry" />
        </mxCell>
        <mxCell id="WiwQQnGysN5FODEZbH94-75" value="Export File" style="swimlane;fontStyle=1;align=center;verticalAlign=middle;childLayout=stackLayout;horizontal=1;startSize=29;horizontalStack=0;resizeParent=1;resizeParentMax=0;resizeLast=0;collapsible=0;marginBottom=0;html=1;" parent="1" vertex="1">
          <mxGeometry x="40" y="310" width="160" height="79" as="geometry" />
        </mxCell>
        <mxCell id="WiwQQnGysN5FODEZbH94-76" value="Salvar save em json" style="text;html=1;strokeColor=none;fillColor=none;align=center;verticalAlign=middle;spacingLeft=4;spacingRight=4;overflow=hidden;rotatable=0;points=[[0,0.5],[1,0.5]];portConstraint=eastwest;" parent="WiwQQnGysN5FODEZbH94-75" vertex="1">
          <mxGeometry y="29" width="160" height="25" as="geometry" />
        </mxCell>
        <mxCell id="WiwQQnGysN5FODEZbH94-77" value="Download do User" style="text;html=1;strokeColor=none;fillColor=none;align=center;verticalAlign=middle;spacingLeft=4;spacingRight=4;overflow=hidden;rotatable=0;points=[[0,0.5],[1,0.5]];portConstraint=eastwest;" parent="WiwQQnGysN5FODEZbH94-75" vertex="1">
          <mxGeometry y="54" width="160" height="25" as="geometry" />
        </mxCell>
        <mxCell id="WiwQQnGysN5FODEZbH94-79" style="edgeStyle=orthogonalEdgeStyle;rounded=0;orthogonalLoop=1;jettySize=auto;html=1;entryX=1;entryY=0.5;entryDx=0;entryDy=0;" parent="1" source="WiwQQnGysN5FODEZbH94-59" target="WiwQQnGysN5FODEZbH94-77" edge="1">
          <mxGeometry relative="1" as="geometry" />
        </mxCell>
        <mxCell id="WiwQQnGysN5FODEZbH94-80" style="edgeStyle=orthogonalEdgeStyle;rounded=0;orthogonalLoop=1;jettySize=auto;html=1;entryX=1;entryY=0.5;entryDx=0;entryDy=0;" parent="1" source="WiwQQnGysN5FODEZbH94-63" target="WiwQQnGysN5FODEZbH94-72" edge="1">
          <mxGeometry relative="1" as="geometry" />
        </mxCell>
        <mxCell id="WiwQQnGysN5FODEZbH94-82" value="(Codificação do SaveData)" style="shape=ext;double=1;rounded=0;whiteSpace=wrap;html=1;" parent="1" vertex="1">
          <mxGeometry x="860" y="70" width="120" height="80" as="geometry" />
        </mxCell>
        <mxCell id="B5Cqe_gx7_BWzeAKwgDc-1" style="edgeStyle=orthogonalEdgeStyle;rounded=0;orthogonalLoop=1;jettySize=auto;html=1;exitX=1;exitY=0.5;exitDx=0;exitDy=0;entryX=0;entryY=0;entryDx=0;entryDy=15;entryPerimeter=0;" edge="1" parent="1" source="WiwQQnGysN5FODEZbH94-16" target="WiwQQnGysN5FODEZbH94-53">
          <mxGeometry relative="1" as="geometry" />
        </mxCell>
      </root>
    </mxGraphModel>
  </diagram>
</mxfile>
